<svg xmlns="http://www.w3.org/2000/svg" viewBox="0 0 800 1000" width="800" height="1000">
  <defs>
    <radialGradient id="l" cx="50%" cy="38%" r="70%"><stop offset="0" stop-color="#fff" stop-opacity="0.45"/><stop offset="1" stop-color="#000" stop-opacity="0.1"/></radialGradient>
    <linearGradient id="g" x1="0" y1="0" x2="1" y2="1"><stop offset="0" stop-color="#fff" stop-opacity="0.10"/><stop offset="1" stop-color="#000" stop-opacity="0.22"/></linearGradient>
  </defs>
  <rect width="800" height="1000" fill="#C91F6F"/>
  <rect width="800" height="1000" fill="url(#l)"/>
  <ellipse cx="400" cy="835" rx="230" ry="26" fill="#000" opacity="0.18"/>
  <g transform="translate(400 520)">
    <path d="M-120 -150 L-50 -178 C-38 -150 -20 -138 0 -138 C20 -138 38 -150 50 -178 L120 -150 L168 -60 L118 -38 L96 -72 L96 190 L-96 190 L-96 -72 L-118 -38 L-168 -60 Z" fill="#F5F3EE" fill-rule="evenodd"/>
    <path d="M-120 -150 L-50 -178 C-38 -150 -20 -138 0 -138 C20 -138 38 -150 50 -178 L120 -150 L168 -60 L118 -38 L96 -72 L96 190 L-96 190 L-96 -72 L-118 -38 L-168 -60 Z" fill="url(#g)" fill-rule="evenodd"/>
    <g transform="translate(0 -40)">
      <rect x="-58" y="-58" width="116" height="116" rx="18" fill="#C91F6F" opacity="0.95"/>
      <circle cx="26" cy="-26" r="12" fill="#F5F3EE"/>
      <text x="0" y="96" text-anchor="middle" font-family="Arial Black, Arial, sans-serif" font-weight="900" font-size="22" letter-spacing="3" fill="#C91F6F">TEAM BRIDE</text>
    </g>
  </g>
</svg>
